<?xml version="1.0" encoding="utf-8"?>
<!-- Generator: Adobe Illustrator 23.0.0, SVG Export Plug-In . SVG Version: 6.00 Build 0)  -->
<svg version="1.1" id="Livello_1" xmlns="http://www.w3.org/2000/svg" xmlns:xlink="http://www.w3.org/1999/xlink" x="0px" y="0px"
	 viewBox="0 0 1920 1080" style="enable-background:new 0 0 1920 1080;" xml:space="preserve">
<style type="text/css">
	.st0{fill:#FFFFFF;}
</style>
<g>
	<path d="M832.75,533c72.53,0,145.06,0,217.97,0c0-4.88,0-9.45,0-14.93c13.29,6.7,25.91,13.07,38.53,19.43c0,0.75,0,1.5,0,2.25
		c-12.56,6.27-25.13,12.55-38.27,19.11c0-5.04,0-9.55,0-14.61c-73.04,0-145.64,0-218.23,0C832.75,540.5,832.75,536.75,832.75,533z
		 M1052.78,555.87c11.61-5.81,22.82-11.41,34.66-17.32c-11.93-5.95-23.12-11.54-34.66-17.3
		C1052.78,532.97,1052.78,544.11,1052.78,555.87z"/>
	<path class="st0" d="M1052.78,555.87c0-11.76,0-22.9,0-34.62c11.54,5.76,22.74,11.34,34.66,17.3
		C1075.6,544.46,1064.39,550.06,1052.78,555.87z"/>
</g>
</svg>
